HIERARCHY
ROOT root
{
	OFFSET	0	13.1	24.9
	CHANNELS 6  Xposition Yposition Zposition Xrotation Yrotation Zrotation
	JOINT spine_1
	{
		OFFSET	0	9.99999	0
		CHANNELS 3  Xrotation Yrotation Zrotation
		JOINT spine_2
		{
			OFFSET	0	112	-10
			CHANNELS 3  Xrotation Yrotation Zrotation
			JOINT spine_3
			{
				OFFSET	0	206.5	19.3
				CHANNELS 3  Xrotation Yrotation Zrotation
				JOINT spine_4
				{
					OFFSET	0	110.4	14.6
					CHANNELS 3  Xrotation Yrotation Zrotation
					JOINT neck_1
					{
						OFFSET	0	71.8	-50.3
						CHANNELS 3  Xrotation Yrotation Zrotation
						JOINT neck_2
						{
							OFFSET	0	86.2	-25.8
							CHANNELS 3  Xrotation Yrotation Zrotation
							JOINT head_ee
							{
								OFFSET	0	179.8	-8.7
								CHANNELS 3  Xrotation Yrotation Zrotation
								End Site
								{
									OFFSET	1	0	0
								}
							}
						}
					}
					JOINT left_clavicle
					{
						OFFSET	-43.2	22.4	-70.8
						CHANNELS 3  Xrotation Yrotation Zrotation
						JOINT left_shoulder
						{
							OFFSET	-93.9	-5.79999	48.7
							CHANNELS 3  Xrotation Yrotation Zrotation
							JOINT left_elbow
							{
								OFFSET	-291.4	-30.8	15.2
								CHANNELS 3  Xrotation Yrotation Zrotation
								JOINT left_lowarm_twist
								{
									OFFSET	-110.7	-3.89999	13.6
									CHANNELS 3  Xrotation Yrotation Zrotation
									JOINT left_hand
									{
										OFFSET	-110.7	-3.89999	13.6
										CHANNELS 3  Xrotation Yrotation Zrotation
										JOINT left_ee
										{
											OFFSET	-80.8	-5.10001	12.1
											CHANNELS 3  Xrotation Yrotation Zrotation
											End Site
											{
												OFFSET	1	0	0
											}
										}
									}
								}
							}
						}
					}
					JOINT right_clavicle
					{
						OFFSET	43.2	22.4	-70.8
						CHANNELS 3  Xrotation Yrotation Zrotation
						JOINT right_shoulder
						{
							OFFSET	93.9	-5.79999	48.7
							CHANNELS 3  Xrotation Yrotation Zrotation
							JOINT right_elbow
							{
								OFFSET	291.4	-30.8	15.2
								CHANNELS 3  Xrotation Yrotation Zrotation
								JOINT right_lowarm_twist
								{
									OFFSET	110.7	-3.89999	13.6
									CHANNELS 3  Xrotation Yrotation Zrotation
									JOINT right_hand
									{
										OFFSET	110.7	-3.89999	13.6
										CHANNELS 3  Xrotation Yrotation Zrotation
										JOINT right_ee
										{
											OFFSET	80.8	-5.10001	12.1
											CHANNELS 3  Xrotation Yrotation Zrotation
											End Site
											{
												OFFSET	1	0	0
											}
										}
									}
								}
							}
						}
					}
				}
			}
		}
	}
	JOINT left_hip
	{
		OFFSET	-82.8	-127.5	0.300001
		CHANNELS 3  Xrotation Yrotation Zrotation
		JOINT left_knee
		{
			OFFSET	-28.2	-396.7	2.2
			CHANNELS 3  Xrotation Yrotation Zrotation
			JOINT left_ankle
			{
				OFFSET	-11.7	-411.3	35.4
				CHANNELS 3  Xrotation Yrotation Zrotation
				JOINT left_toes
				{
					OFFSET	0	-60	-88.6
					CHANNELS 3  Xrotation Yrotation Zrotation
					JOINT left_foot_ee
					{
						OFFSET	-22.5	-16.5	-42.2
						CHANNELS 3  Xrotation Yrotation Zrotation
						End Site
						{
							OFFSET	1	0	0
						}
					}
				}
			}
		}
	}
	JOINT right_hip
	{
		OFFSET	82.8	-127.5	0.300001
		CHANNELS 3  Xrotation Yrotation Zrotation
		JOINT right_knee
		{
			OFFSET	28.2	-396.7	2.2
			CHANNELS 3  Xrotation Yrotation Zrotation
			JOINT right_ankle
			{
				OFFSET	11.7	-411.3	35.4
				CHANNELS 3  Xrotation Yrotation Zrotation
				JOINT right_toes
				{
					OFFSET	0	-60	-88.6
					CHANNELS 3  Xrotation Yrotation Zrotation
					JOINT right_foot_ee
					{
						OFFSET	22.5	-16.5	-42.2
						CHANNELS 3  Xrotation Yrotation Zrotation
						End Site
						{
							OFFSET	1	0	0
						}
					}
				}
			}
		}
	}
}
MOTION
Frames: 12
Frame Time: 0.02
3177.02 653.055 -1669.29 -20.382799151 22.4208293617 15.4015507917 7.73505 -0.0738243 -0.968081 7.73557 -0.0120761 -0.970817 7.73495 0.0624067 -0.968884 7.73365 -0.0913863 -0.966581 -9.38457 -2.94732 1.77595 -9.38502 -6.75103 1.03554 -0.0 0.0 -0.0 2.70732 18.3734 6.25096 -28.8971 3.95215 61.5652 0.236005 -6.66834 0.0137492 80.183 -3.85965 -8.62005 -0.819592 16.4565 1.67656 -0.0 0.0 -0.0 10.1615 -5.80132 -19.5847 91.2386 -65.7375 -12.0703 0.17477 4.94822 -0.00755157 85.4792 4.48399 8.88799 -10.0497 -31.3426 46.63 0.0 0.0 0.0 47.0698 -28.2311 -5.91365 -14.3167 0.320037 2.16806 26.0566 25.8151 -3.65591 -18.3439 0.0 0.0 -0.0 0.0 -0.0 6.7494 -21.5848 -6.29658 -18.8336 -0.307695 -2.8608 38.7081 23.0209 5.37436 19.8808 -0.0 -0.0 0.0 0.0 0.0 
3163.98257876 653.436 -1689.91027273 -21.0349846742 21.7876537938 16.1212804338 7.99772 -0.0253814 -1.09164 7.99838 0.0441296 -1.09104 7.99646 0.122727 -1.08502 7.99482 -0.050161 -1.09078 -10.4091 -1.86364 2.79834 -10.3956 -5.38695 2.24569 -0.0 0.0 -0.0 2.03968 18.7803 5.25998 -29.8638 4.65739 62.3888 0.382595 -10.732 0.035937 77.1476 -3.51379 -8.44087 -1.15905 16.2377 -0.49827 -0.0 0.0 -0.0 9.67212 -7.21797 -18.5101 91.3574 -67.0976 -9.82617 0.177502 5.02519 -0.00778902 84.5742 4.37561 8.84631 -9.25053 -30.665 41.1799 0.0 0.0 0.0 46.4141 -29.2286 -6.39872 -14.9297 0.321566 2.2621 25.2734 25.9513 -3.56203 -13.0317 0.0 0.0 -0.0 0.0 -0.0 7.08728 -20.3739 -6.20294 -20.3991 -0.29068 -3.1004 38.6308 21.1874 5.28018 19.9855 -0.0 -0.0 0.0 0.0 0.0 
3142.78725564 649.167 -1711.47671016 -20.1439219065 23.1623177543 16.139906509 7.69613 -0.25844 -1.35541 7.69713 -0.171676 -1.3691 7.69959 -0.0653673 -1.37827 7.69705 -0.2822 -1.35066 -10.0524 -1.94718 3.18321 -10.0322 -5.81508 2.61846 -0.0 0.0 -0.0 1.62155 17.5907 4.54824 -24.5112 6.72061 65.7406 0.321598 -9.05194 0.025457 76.6267 -3.45541 -8.4083 -0.905034 13.816 0.00977214 -0.0 0.0 -0.0 9.05994 -8.46272 -17.2446 90.9162 -66.1229 -10.1718 0.179507 5.08164 -0.00796559 85.461 4.48181 8.88717 -10.7222 -31.9436 51.7188 0.0 0.0 0.0 49.143 -30.2282 -3.21568 -23.2242 0.243435 3.53129 30.0992 26.1381 -4.14756 -9.30105 0.0 0.0 -0.0 0.0 -0.0 7.06976 -11.8227 -6.82654 -23.3499 -0.240841 -3.55039 39.4031 11.2408 5.00477 28.6856 -0.0 -0.0 0.0 0.0 0.0 
3142.53148882 649.167 -1711.26787389 -20.1956967859 23.4891926003 16.2706643383 7.69613 -0.25844 -1.35541 7.69713 -0.171676 -1.3691 7.69959 -0.0653673 -1.37827 7.69705 -0.2822 -1.35066 -10.0524 -1.94718 3.18321 -10.0322 -5.81508 2.61846 -0.0 0.0 -0.0 1.62155 17.5907 4.54824 -24.5112 6.72061 65.7406 0.321598 -9.05194 0.025457 76.6267 -3.45541 -8.4083 -0.905034 13.816 0.00977214 -0.0 0.0 -0.0 9.05994 -8.46272 -17.2446 90.9162 -66.1229 -10.1718 0.179507 5.08164 -0.00796559 85.461 4.48181 8.88717 -10.7222 -31.9436 51.7188 0.0 0.0 0.0 49.143 -30.2282 -3.21568 -23.2242 0.243435 3.53129 30.0992 26.1381 -4.14756 -9.30105 0.0 0.0 -0.0 0.0 -0.0 7.06976 -11.8227 -6.82654 -23.3499 -0.240841 -3.55039 39.4031 11.2408 5.00477 28.6856 -0.0 -0.0 0.0 0.0 0.0 
3126.72828453 652.578 -1730.34476112 -20.0709497622 24.6510719435 17.1088812007 7.56353 -0.191296 -1.32799 7.5645 -0.106413 -1.33747 7.56545 0.000416695 -1.34169 7.563 -0.211465 -1.32493 -10.6178 -1.41858 1.7099 -10.6143 -3.81568 1.29311 -0.0 0.0 -0.0 2.24388 18.6508 5.561 -22.9971 6.42438 64.3701 0.292725 -8.251 0.0211137 81.0798 -3.96361 -8.66946 -0.34705 11.3033 2.45934 -0.0 0.0 -0.0 8.9342 -8.4181 -17.0126 90.8728 -65.127 -8.02712 0.176382 4.99364 -0.00769117 85.4712 4.48304 8.88763 -10.6001 -31.8833 50.6503 0.0 0.0 0.0 47.6428 -30.9493 -3.44311 -23.9148 0.228659 3.63623 31.0517 25.5128 -4.24095 -6.9619 0.0 0.0 -0.0 0.0 -0.0 8.60285 -13.5729 -6.01036 -28.4712 -0.0995792 -4.3234 39.088 9.27275 4.93058 25.7878 -0.0 -0.0 0.0 0.0 0.0 
3108.78203358 658.339 -1743.91654849 -20.2776891424 25.8593110866 17.7754727917 7.35784 -0.265724 -1.47834 7.35904 -0.171125 -1.49225 7.36165 -0.0464462 -1.50131 7.35862 -0.282941 -1.47514 -10.7163 -3.05321 1.96961 -10.7233 -7.07121 1.11553 -0.0 0.0 -0.0 2.34302 20.1952 5.7845 -25.2749 7.4311 64.8998 0.406663 -11.3899 0.0405545 80.5918 -3.90694 -8.64277 0.437752 7.76233 6.07879 -0.0 0.0 -0.0 8.33896 -7.81265 -15.9417 90.4806 -64.0007 -6.49197 0.181436 5.13597 -0.00813736 85.2691 4.45877 8.87846 -9.48017 -29.9787 44.0121 0.0 0.0 0.0 46.5029 -32.301 -2.32073 -23.5599 0.23641 3.58233 31.9081 25.9725 -4.35043 -7.68995 0.0 0.0 -0.0 0.0 -0.0 12.1419 -7.63133 -6.81147 -35.549 0.208147 -5.36519 38.0277 -1.83514 4.69099 28.2362 -0.0 -0.0 0.0 0.0 0.0 
3108.86851695 658.339 -1743.99553633 -20.2665595816 25.7970578991 17.7499271752 7.35784 -0.265724 -1.47834 7.35904 -0.171125 -1.49225 7.36165 -0.0464462 -1.50131 7.35862 -0.282941 -1.47514 -10.7163 -3.05321 1.96961 -10.7233 -7.07121 1.11553 -0.0 0.0 -0.0 2.34302 20.1952 5.7845 -25.2749 7.4311 64.8998 0.406663 -11.3899 0.0405545 80.5918 -3.90694 -8.64277 0.437752 7.76233 6.07879 -0.0 0.0 -0.0 8.33896 -7.81265 -15.9417 90.4806 -64.0007 -6.49197 0.181436 5.13597 -0.00813736 85.2691 4.45877 8.87846 -9.48017 -29.9787 44.0121 0.0 0.0 0.0 46.5029 -32.301 -2.32073 -23.5599 0.23641 3.58233 31.9081 25.9725 -4.35043 -7.68995 0.0 0.0 -0.0 0.0 -0.0 12.1419 -7.63133 -6.81147 -35.549 0.208147 -5.36519 38.0277 -1.83514 4.69099 28.2362 -0.0 -0.0 0.0 0.0 0.0 
3108.91386667 658.339 -1744.03688222 -20.2607428542 25.7644383886 17.7365531923 7.35784 -0.265724 -1.47834 7.35904 -0.171125 -1.49225 7.36165 -0.0464462 -1.50131 7.35862 -0.282941 -1.47514 -10.7163 -3.05321 1.96961 -10.7233 -7.07121 1.11553 -0.0 0.0 -0.0 2.34302 20.1952 5.7845 -25.2749 7.4311 64.8998 0.406663 -11.3899 0.0405545 80.5918 -3.90694 -8.64277 0.437752 7.76233 6.07879 -0.0 0.0 -0.0 8.33896 -7.81265 -15.9417 90.4806 -64.0007 -6.49197 0.181436 5.13597 -0.00813736 85.2691 4.45877 8.87846 -9.48017 -29.9787 44.0121 0.0 0.0 0.0 46.5029 -32.301 -2.32073 -23.5599 0.23641 3.58233 31.9081 25.9725 -4.35043 -7.68995 0.0 0.0 -0.0 0.0 -0.0 12.1419 -7.63133 -6.81147 -35.549 0.208147 -5.36519 38.0277 -1.83514 4.69099 28.2362 -0.0 -0.0 0.0 0.0 0.0 
3076.89473598 669.499 -1783.19990301 -20.6342940265 27.1471097001 19.7062775887 7.26862 -0.402288 -2.09682 7.27103 -0.268077 -2.11816 7.27728 -0.0879336 -2.13324 7.27118 -0.423661 -2.09261 -8.56846 -4.57354 3.79126 -8.53975 -11.2018 2.70717 -0.0 0.0 -0.0 3.53061 21.6026 7.55106 -17.3335 10.6449 62.8494 0.188187 -5.32598 0.00875282 84.3477 -4.34859 -8.83561 -0.390463 10.1552 1.70366 -0.0 0.0 -0.0 5.86554 -8.26073 -11.3882 90.5972 -66.1832 -2.23389 0.199521 5.64473 -0.00983622 85.3472 4.46815 8.88202 -8.74599 -30.2818 37.9333 0.0 0.0 0.0 44.6897 -27.3963 -2.95694 -26.0487 0.175018 3.95929 35.5135 19.5542 -4.584 -9.6886 0.0 0.0 -0.0 0.0 -0.0 24.2306 0.793814 -9.84845 -54.4619 1.63256 -7.88772 37.6609 -19.4902 4.79561 35.8505 -0.0 -0.0 0.0 0.0 0.0 
3076.21085334 669.499 -1782.59512102 -20.6971419654 27.4698193746 19.84326602 7.26862 -0.402288 -2.09682 7.27103 -0.268077 -2.11816 7.27728 -0.0879336 -2.13324 7.27118 -0.423661 -2.09261 -8.56846 -4.57354 3.79126 -8.53975 -11.2018 2.70717 -0.0 0.0 -0.0 3.53061 21.6026 7.55106 -17.3335 10.6449 62.8494 0.188187 -5.32598 0.00875282 84.3477 -4.34859 -8.83561 -0.390463 10.1552 1.70366 -0.0 0.0 -0.0 5.86554 -8.26073 -11.3882 90.5972 -66.1832 -2.23389 0.199521 5.64473 -0.00983622 85.3472 4.46815 8.88202 -8.74599 -30.2818 37.9333 0.0 0.0 0.0 44.6897 -27.3963 -2.95694 -26.0487 0.175018 3.95929 35.5135 19.5542 -4.584 -9.6886 0.0 0.0 -0.0 0.0 -0.0 24.2306 0.793814 -9.84845 -54.4619 1.63256 -7.88772 37.6609 -19.4902 4.79561 35.8505 -0.0 -0.0 0.0 0.0 0.0 
3066.26312735 672.384 -1798.75095033 -20.5053240665 25.9337581037 19.5311437546 7.87345 -0.361193 -2.10565 7.87589 -0.226504 -2.12436 7.88019 -0.0684394 -2.1353 7.87405 -0.404736 -2.09772 -13.4351 -5.27457 5.12027 -13.4806 -13.2165 3.26603 -0.0 0.0 -0.0 4.68438 18.8481 9.26972 -17.467 -9.99022 64.9586 0.568754 -15.735 0.0785932 84.812 -4.40403 -8.85743 0.782164 -0.0820146 5.19732 -0.0 0.0 -0.0 6.67622 -6.75816 -12.8944 89.052 -65.3796 1.05411 0.197965 5.60099 -0.00968382 83.129 4.20393 8.77622 -7.41113 -21.1381 38.4274 0.0 0.0 0.0 43.7508 -21.8016 -4.52809 -26.784 0.15375 4.07013 35.8911 16.3043 -4.56495 -10.2533 0.0 0.0 -0.0 0.0 -0.0 27.8112 3.9693 -10.9691 -58.0391 1.992 -8.30587 38.5131 -22.2945 4.94472 31.8524 -0.0 -0.0 0.0 0.0 0.0 
3040.25538249 671.205 -1815.74817491 -22.3491979227 27.9169392778 21.8531847552 8.44895 -0.525536 -2.62147 8.4527 -0.357721 -2.64957 8.46224 -0.187633 -2.667 8.45283 -0.606338 -2.60398 -12.3461 -5.28466 5.51743 -12.3608 -13.5472 3.77617 -0.0 0.0 -0.0 5.02268 20.8466 9.7334 -10.5817 -0.187542 66.6838 0.306412 -8.63108 0.0231228 85.136 -4.44281 -8.87238 0.945632 1.97018 7.1266 -0.0 0.0 -0.0 4.50859 -9.13942 -8.96897 83.0638 -66.2797 -3.11709 0.185231 5.2428 -0.00848061 83.6126 4.26118 8.80016 -7.37184 -21.6507 37.5873 0.0 0.0 0.0 42.8183 -24.0809 -3.80265 -26.8181 0.15273 4.07526 41.6239 20.7657 -5.1951 -7.14043 0.0 0.0 -0.0 0.0 -0.0 28.9568 3.966 -11.1111 -58.1863 2.00736 -8.3226 37.8327 -21.4605 4.85718 35.1275 -0.0 -0.0 0.0 0.0 0.0 
